<svg xmlns="http://www.w3.org/2000/svg" version="1.1" xmlns:xlink="http://www.w3.org/1999/xlink" xmlns:svgjs="http://svgjs.com/svgjs" width="512" height="512" x="0" y="0" viewBox="0 0 512.037 512.037" style="enable-background:new 0 0 512 512" xml:space="preserve" class=""><rect width="512.037" height="512.037" fill="#ffffff" shape="square" transform="matrix(1,0,0,1,0,0)"></rect><g transform="matrix(0.7,0,0,0.7,76.80556411743166,76.80510549545289)"><g xmlns="http://www.w3.org/2000/svg"><g><g><path d="m291.424 184.636h56.64v98.197c0 4.512 3.022 8.465 7.376 9.649.872.237 1.753.352 2.625.352 3.481 0 6.795-1.825 8.623-4.937l90.693-154.426c1.816-3.092 1.837-6.919.056-10.032-1.781-3.112-5.093-5.032-8.679-5.032h-56.64v-98.197c0-4.512-3.022-8.465-7.376-9.649-4.354-1.186-8.961.695-11.247 4.585l-90.693 154.426c-1.816 3.092-1.837 6.919-.056 10.032 1.78 3.112 5.092 5.032 8.678 5.032zm80.693-127.652v71.423c0 5.523 4.477 10 10 10h49.17l-63.223 107.652v-71.423c0-5.523-4.477-10-10-10h-49.17z" fill="#41d90a" data-original="#000000" style=""></path><path d="m507.947 396.694c-8.941-18.042-28.844-24.563-49.47-16.244l-96.374 38.305c-10.016 3.233-20.99 3.119-30.938-.326l-56.372-19.52c22.973.564 49.886-.849 71.637-1.989 12.453-.652 23.212-1.216 29.826-1.216.032 0 .064-.001.096 0 14.853 0 28.153-8.979 33.889-22.879l.25-.606c4.664-11.304 3.39-24.113-3.408-34.264-6.724-10.041-17.918-16.033-29.942-16.033h-20.693c-5.523 0-10 4.477-10 10s4.477 10 10 10h20.687c5.424 0 10.282 2.61 13.33 7.161 3.121 4.66 3.682 10.313 1.538 15.509l-.25.606c-2.634 6.383-8.678 10.506-15.4 10.506-.03 0-.062 0-.093 0-7.14 0-18.143.577-30.875 1.244-22.043 1.155-49.474 2.595-72.065 1.914-9.897-.29-18.06 6.323-19.855 16.1-1.803 9.813 3.497 18.938 12.887 22.189l58.272 20.178c14.155 4.9 29.784 5.019 44.01.334.19-.063.379-.131.565-.205l96.714-38.44c5.229-2.109 18.046-5.692 24.117 6.557 3.548 7.16 2.498 17.016-5.292 21.415l-132.428 49.96c-.064.024-.129.05-.193.075-15.714 6.305-33.026 6.396-48.796.269l-117.903-58.317c-1.378-.682-2.896-1.037-4.434-1.037h-20.836v-40.755h27.229c19.156 0 23.286-11.879 25.754-18.976 2.784-8.007 5.664-16.288 40.766-16.288h12.139c5.523 0 10-4.477 10-10s-4.477-10-10-10h-12.139c-45.514 0-54.427 14.681-59.656 29.719-.649 1.868-1.458 4.193-2.054 4.774-.219.214-1.511.77-4.81.77h-27.229v-.823c0-5.523-4.477-10-10-10h-33.918v-.87c0-5.523-4.477-10-10-10h-96.23c-5.523 0-10 4.477-10 10v107.401c0 5.523 4.477 10 10 10h96.23c5.523 0 10-4.477 10-10v-.87h33.916c5.523 0 10-4.477 10-10v-4.084h18.499l116.191 57.47c.248.123.5.235.757.336 10.256 4.055 21.02 6.081 31.786 6.081 10.872-.001 21.743-2.067 32.083-6.2l132.96-50.162c.371-.14.733-.302 1.084-.484 17.108-8.894 23.451-30.105 14.441-48.285zm-411.717 46.201h-76.23v-87.401h76.23zm43.916-10.87h-23.916v-65.662h23.916z" fill="#41d90a" data-original="#000000" style=""></path><path d="m319.74 326.368c-2.397-3.498-6.781-5.212-10.906-4.1-4.053 1.092-7.036 4.687-7.381 8.87-.342 4.15 2.068 8.178 5.849 9.89 3.745 1.696 8.276.877 11.188-2.03 3.355-3.351 3.832-8.685 1.25-12.63z" fill="#41d90a" data-original="#000000" style=""></path></g></g></g></g></svg>