<svg xmlns="http://www.w3.org/2000/svg" version="1.1" xmlns:xlink="http://www.w3.org/1999/xlink" xmlns:svgjs="http://svgjs.com/svgjs" width="512" height="512" x="0" y="0" viewBox="0 0 512 512" style="enable-background:new 0 0 512 512" xml:space="preserve" class=""><rect width="512" height="512" fill="#ffffff" shape="square" transform="matrix(1,0,0,1,0,0)"></rect><g transform="matrix(0.7,0,0,0.7,76.79969329833986,76.79986495971681)"><g xmlns="http://www.w3.org/2000/svg"><path d="m256 81.255c-96.355 0-174.745 78.391-174.745 174.745s78.39 174.745 174.745 174.745 174.745-78.391 174.745-174.745-78.391-174.745-174.745-174.745zm0 329.49c-85.327 0-154.745-69.418-154.745-154.745s69.418-154.745 154.745-154.745 154.745 69.418 154.745 154.745-69.418 154.745-154.745 154.745z" fill="#4dd50f" data-original="#000000" style="" class=""></path><path d="m484.3 201.169h-8.479c-5.414-21.804-14.008-42.534-25.627-61.82l6.011-6.01c10.8-10.801 10.8-28.373 0-39.174l-38.369-38.369c-10.801-10.799-28.373-10.799-39.174 0l-6.01 6.011c-19.284-11.618-40.016-20.212-61.82-25.627v-8.48c0-15.273-12.426-27.7-27.7-27.7h-54.262c-15.274 0-27.7 12.427-27.7 27.7v8.479c-21.805 5.415-42.536 14.009-61.82 25.627l-6.01-6.011c-10.801-10.799-28.373-10.799-39.174 0l-38.37 38.37c-10.8 10.801-10.8 28.373 0 39.174l6.011 6.01c-11.619 19.286-20.213 40.017-25.627 61.82h-8.48c-15.273 0-27.7 12.426-27.7 27.7v54.262c0 15.274 12.427 27.7 27.7 27.7h8.479c5.414 21.804 14.008 42.534 25.627 61.82l-6.011 6.01c-10.8 10.801-10.8 28.373 0 39.174l38.369 38.369c10.801 10.799 28.373 10.799 39.174 0l6.01-6.011c19.284 11.618 40.016 20.212 61.82 25.627v8.479c0 15.273 12.426 27.7 27.7 27.7h54.262c15.274 0 27.7-12.427 27.7-27.7v-8.479c21.805-5.415 42.536-14.009 61.82-25.627l6.01 6.011c10.801 10.799 28.373 10.799 39.174 0l38.369-38.369c10.8-10.801 10.8-28.373 0-39.174l-6.011-6.01c11.619-19.286 20.213-40.017 25.627-61.82h8.479c15.273 0 27.7-12.426 27.7-27.7v-54.262c.002-15.274-12.425-27.7-27.698-27.7zm7.7 81.962c0 4.246-3.454 7.7-7.7 7.7h-16.444c-4.728 0-8.812 3.313-9.785 7.939-5.252 24.941-14.994 48.444-28.957 69.857-2.582 3.961-2.038 9.19 1.306 12.533l11.643 11.643c3.002 3.002 3.002 7.887 0 10.889l-38.369 38.369c-3.002 3.002-7.887 3.002-10.889 0l-11.643-11.643c-3.344-3.344-8.573-3.885-12.533-1.306-21.411 13.962-44.914 23.704-69.857 28.957-4.627.975-7.939 5.057-7.939 9.785v16.446c0 4.246-3.454 7.7-7.7 7.7h-54.262c-4.246 0-7.7-3.454-7.7-7.7v-16.444c0-4.728-3.313-8.811-7.939-9.785-24.943-5.253-48.446-14.995-69.857-28.957-1.673-1.09-3.571-1.623-5.459-1.623-2.582 0-5.143.997-7.074 2.929l-11.643 11.643c-3.002 3.002-7.887 3.002-10.889 0l-38.369-38.369c-3.002-3.002-3.002-7.887 0-10.889l11.643-11.643c3.344-3.344 3.888-8.572 1.306-12.533-13.963-21.413-23.705-44.916-28.957-69.857-.974-4.627-5.057-7.939-9.785-7.939h-16.448c-4.246 0-7.7-3.454-7.7-7.7v-54.262c0-4.246 3.454-7.7 7.7-7.7h16.444c4.729 0 8.812-3.313 9.785-7.939 5.252-24.941 14.994-48.444 28.957-69.857 2.582-3.961 2.038-9.189-1.306-12.533l-11.643-11.643c-3.002-3.002-3.002-7.887 0-10.889l38.369-38.369c3.002-3.002 7.887-3.002 10.889 0l11.643 11.643c3.345 3.345 8.575 3.887 12.533 1.306 21.411-13.962 44.914-23.704 69.857-28.957 4.627-.975 7.939-5.057 7.939-9.785v-16.448c0-4.246 3.454-7.7 7.7-7.7h54.262c4.246 0 7.7 3.454 7.7 7.7v16.444c0 4.729 3.313 8.811 7.939 9.785 24.943 5.253 48.446 14.995 69.857 28.957 3.961 2.58 9.189 2.038 12.533-1.306l11.643-11.643c3.002-3.002 7.887-3.002 10.889 0l38.369 38.369c3.002 3.002 3.002 7.887 0 10.889l-11.643 11.643c-3.344 3.344-3.888 8.572-1.306 12.533 13.963 21.413 23.705 44.916 28.957 69.857.974 4.627 5.057 7.939 9.785 7.939h16.448c4.246 0 7.7 3.454 7.7 7.7z" fill="#4dd50f" data-original="#000000" style="" class=""></path><path d="m321.581 225.173-38.715 1.433 6.002-80.979c.334-4.509-2.398-8.682-6.666-10.177-4.267-1.496-9.007.059-11.559 3.791l-88.847 129.862c-2.095 3.062-2.322 7.031-.592 10.312s5.135 5.335 8.845 5.335h48.93l-10.965 81.022c-.63 4.653 2.063 9.118 6.473 10.731 1.127.413 2.287.61 3.435.61 3.341 0 6.559-1.681 8.437-4.629l84.028-131.946c1.997-3.136 2.09-7.119.242-10.344-1.851-3.224-5.33-5.164-9.048-5.021zm-67.645 98.177 6.397-47.259c.387-2.859-.48-5.747-2.38-7.921-1.898-2.173-4.645-3.42-7.53-3.42h-41.416l57.171-83.564-4.083 55.086c-.21 2.837.798 5.63 2.772 7.679 1.974 2.048 4.724 3.16 7.57 3.054l30.846-1.142z" fill="#4dd50f" data-original="#000000" style="" class=""></path></g></g></svg>