<svg xmlns="http://www.w3.org/2000/svg" version="1.1" xmlns:xlink="http://www.w3.org/1999/xlink" xmlns:svgjs="http://svgjs.com/svgjs" width="512" height="512" x="0" y="0" viewBox="0 0 480.00032 480" style="enable-background:new 0 0 512 512" xml:space="preserve" class=""><rect width="480.00032" height="480" fill="#ffffff" shape="square" transform="matrix(1,0,0,1,0,0)"></rect><g transform="matrix(0.5,0,0,0.5,120.00008392333967,119.99999999999987)"><path xmlns="http://www.w3.org/2000/svg" d="m352 352h16v16h-16zm0 0" fill="#34ef0d" data-original="#000000" style=""></path><path xmlns="http://www.w3.org/2000/svg" d="m382.625 345.933594 11.3125-11.3125 11.320312 11.316406-11.316406 11.316406zm0 0" fill="#34ef0d" data-original="#000000" style=""></path><path xmlns="http://www.w3.org/2000/svg" d="m400 304h16v16h-16zm0 0" fill="#34ef0d" data-original="#000000" style=""></path><path xmlns="http://www.w3.org/2000/svg" d="m304 304h16v16h-16zm0 0" fill="#34ef0d" data-original="#000000" style=""></path><path xmlns="http://www.w3.org/2000/svg" d="m314.746094 345.941406 11.320312-11.316406 11.3125 11.3125-11.320312 11.320312zm0 0" fill="#34ef0d" data-original="#000000" style=""></path><path xmlns="http://www.w3.org/2000/svg" d="m96 424h80c4.417969 0 8-3.582031 8-8v-80c0-4.417969-3.582031-8-8-8h-80c-4.417969 0-8 3.582031-8 8v80c0 4.417969 3.582031 8 8 8zm48-80h24v24h-24zm0 40h24v24h-24zm-40-40h24v24h-24zm0 40h24v24h-24zm0 0" fill="#34ef0d" data-original="#000000" style=""></path><path xmlns="http://www.w3.org/2000/svg" d="m32 56c0 17.671875 14.328125 32 32 32s32-14.328125 32-32-14.328125-32-32-32-32 14.328125-32 32zm32-16c8.835938 0 16 7.164062 16 16s-7.164062 16-16 16-16-7.164062-16-16 7.164062-16 16-16zm0 0" fill="#34ef0d" data-original="#000000" style=""></path><path xmlns="http://www.w3.org/2000/svg" d="m56 96h16v16h-16zm0 0" fill="#34ef0d" data-original="#000000" style=""></path><path xmlns="http://www.w3.org/2000/svg" d="m104 48h16v16h-16zm0 0" fill="#34ef0d" data-original="#000000" style=""></path><path xmlns="http://www.w3.org/2000/svg" d="m56 0h16v16h-16zm0 0" fill="#34ef0d" data-original="#000000" style=""></path><path xmlns="http://www.w3.org/2000/svg" d="m8 48h16v16h-16zm0 0" fill="#34ef0d" data-original="#000000" style=""></path><path xmlns="http://www.w3.org/2000/svg" d="m90.34375 18.339844 16-15.996094 11.3125 11.3125-15.996094 16zm0 0" fill="#34ef0d" data-original="#000000" style=""></path><path xmlns="http://www.w3.org/2000/svg" d="m10.34375 13.65625 11.3125-11.3125 16 15.996094-11.316406 11.316406zm0 0" fill="#34ef0d" data-original="#000000" style=""></path><path xmlns="http://www.w3.org/2000/svg" d="m10.34375 98.339844 16-15.996094 11.3125 11.3125-15.996094 16zm0 0" fill="#34ef0d" data-original="#000000" style=""></path><path xmlns="http://www.w3.org/2000/svg" d="m90.34375 93.65625 11.316406-11.3125 15.996094 15.996094-11.3125 11.316406zm0 0" fill="#34ef0d" data-original="#000000" style=""></path><path xmlns="http://www.w3.org/2000/svg" d="m461.167969 150.152344c14.769531-17.902344 14.398437-43.871094-.878907-61.34375 7.789063-16.800782 3.03125-36.746094-11.5-48.222656-14.535156-11.472657-35.042968-11.472657-49.578124 0-14.53125 11.476562-19.289063 31.421874-11.5 48.222656-15.277344 17.476562-15.648438 43.449218-.871094 61.351562-.519532.457032-.96875.992188-1.472656 1.472656l-18.710938-28.074218c-.054688-.078125-.160156-.101563-.214844-.183594-.222656-.34375-.46875-.667969-.738281-.976562-.085937-.078126-.191406-.132813-.277344-.214844-.589843-.539063-1.257812-.988282-1.976562-1.335938-.234375-.101562-.449219-.199218-.6875-.289062-.09375-.042969-.1875-.082032-.28125-.117188-8.082031-35.457031-23.777344-56.441406-42.480469-56.441406s-34.230469 20.800781-42.398438 56h-173.601562c-.953125.019531-1.890625.210938-2.777344.558594-.191406.074218-.375.128906-.558594.21875-.808593.367187-1.546874.867187-2.191406 1.480468-.121094.109376-.207031.246094-.328125.375-.289062.289063-.554687.601563-.800781.925782l-96 144c-.167969.300781-.316406.613281-.449219.929687-.117187.214844-.222656.433594-.320312.65625-.347657.859375-.542969 1.773438-.574219 2.703125v.152344 200c0 4.417969 3.582031 8 8 8h448c4.417969 0 8-3.582031 8-8v-200c0-.054688 0-.097656 0-.152344-.023438-.925781-.207031-1.839844-.542969-2.703125-.097656-.222656-.203125-.441406-.320312-.65625-.132813-.316406-.28125-.628906-.449219-.929687l-16.289062-24.359375c20.339843-8.921875 33.511718-28.988281 33.601562-51.199219.054688-16.011719-6.8125-31.269531-18.832031-41.847656zm-58.222657-54.03125c3.023438-2.675782 3.582032-7.191406 1.292969-10.519532-4.246093-6.128906-5.382812-13.890624-3.078125-20.980468 2.308594-7.089844 7.800782-12.695313 14.839844-15.148438v148.128906l-21.488281-32.234374c2.53125-2.894532 5.464843-5.410157 8.710937-7.472657 2.238282-1.351562 3.675782-3.714843 3.847656-6.324219.167969-2.609374-.945312-5.136718-2.992187-6.769531-7.421875-5.816406-11.847656-14.652343-12.070313-24.082031-.21875-9.425781 3.792969-18.457031 10.9375-24.613281zm38.109376 167.878906h-162.109376l81.054688-121.601562zm-73.054688 48c0 4.417969-3.582031 8-8 8s-8-3.582031-8-8 3.582031-8 8-8 8 3.582031 8 8zm-214.945312-80-21.335938 32h-44.796875l21.335937-32zm-34.109376-16 21.335938-32h44.796875l-21.335937 32zm53.335938 16h44.796875l-21.335937 32h-44.796876zm10.664062-16 21.335938-32h44.796875l-21.335937 32zm85.335938-32h44.796875l-21.335937 32h-44.796876zm59.71875-100.121094c9.191406 10.160156 15.390625 22.660156 17.921875 36.121094h-17.921875zm17.054688 52.121094-21.335938 32h-44.796875l21.335937-32zm-33.054688-52.121094v36.121094h-17.921875c2.53125-13.460938 8.730469-25.960938 17.921875-36.121094zm-30.945312 52.121094-21.335938 32h-44.796875l21.335937-32zm-64 0-21.335938 32h-44.796875l21.335937-32zm-108.796876 0h44.796876l-21.335938 32h-44.796875zm-32 48h44.796876l-21.335938 32h-44.796875zm-32 48h44.796876l-21.335938 32h-44.796875zm211.742188 232h-240v-184h240zm3.71875-200h-44.796875l21.335937-32h44.796876zm124.28125 200h-48v-40c0-13.253906 10.746094-24 24-24s24 10.746094 24 24zm64-184v184h-48v-40c0-22.089844-17.910156-40-40-40s-40 17.910156-40 40v40h-48v-184h80v9.472656c-11.019531 3.894532-17.632812 15.164063-15.65625 26.683594 1.976562 11.523438 11.96875 19.941406 23.65625 19.941406s21.679688-8.417968 23.65625-19.941406c1.976562-11.519531-4.636719-22.789062-15.65625-26.683594v-9.472656zm-10.648438-50.398438-5.351562-8v-172.128906c7.039062 2.453125 12.53125 8.058594 14.839844 15.148438 2.304687 7.089844 1.167968 14.851562-3.078125 20.980468-2.296875 3.332032-1.742188 7.855469 1.292969 10.535157 7.132812 6.15625 11.136718 15.179687 10.917968 24.597656-.222656 9.421875-4.640625 18.25-12.050781 24.066406-2.027344 1.632813-3.132813 4.152344-2.960937 6.75.167968 2.597657 1.59375 4.949219 3.816406 6.304688 13.195312 7.992187 20.601562 22.875 19.011718 38.21875-1.585937 15.347656-11.882812 28.398437-26.4375 33.519531zm0 0" fill="#34ef0d" data-original="#000000" style=""></path></g></svg>