<svg xmlns="http://www.w3.org/2000/svg" width="33.242" height="32.321" viewBox="0 0 33.242 32.321">
  <g id="Group_6" data-name="Group 6" transform="translate(-605.751 -272.005)">
    <path id="Path_7" data-name="Path 7" d="M0,0S3.978-.017,6.478,2.233,10,9,10,9" transform="translate(620.5 280.5)" fill="none" stroke="#f2d86e" stroke-width="1"/>
    <path id="Path_6" data-name="Path 6" d="M0,0S5.991,1.166,9.491,4.666,14,14,14,14" transform="translate(620.5 275.5)" fill="none" stroke="#f2d86e" stroke-width="1"/>
    <path id="Path_5" data-name="Path 5" d="M0,0S7.725,1.128,12.225,5.378,18,17,18,17" transform="translate(620.5 272.5)" fill="none" stroke="#f2d86e" stroke-width="1"/>
    <path id="Path_8" data-name="Path 8" d="M1116.586,503.192l4.185-4.91-5.97-6.7a17.085,17.085,0,0,0-4.458,4.213c-1.5,2.323-.943,6.456-.943,6.456a55.344,55.344,0,0,0,8.922,11.389,32.593,32.593,0,0,0,11.389,7.181,11.592,11.592,0,0,0,5.3-1.523,10.574,10.574,0,0,0,3.286-4.224,8.456,8.456,0,0,0-2.271-3.465,15.31,15.31,0,0,0-4.369-2.394l-4.073,3.18a26.927,26.927,0,0,1-6.476-3.76A22.381,22.381,0,0,1,1116.586,503.192Z" transform="translate(-503 -217)" fill="#52c306" stroke="#5fa733" stroke-width="1"/>
  </g>
</svg>
